<svg xmlns="http://www.w3.org/2000/svg" xmlns:xlink="http://www.w3.org/1999/xlink" viewBox="0 0 14.02 14.02"><defs><style>.cls-1{fill:url(#New_Gradient_Swatch_1);}.cls-2{fill:url(#New_Gradient_Swatch_1-2);}</style><linearGradient id="New_Gradient_Swatch_1" x1="519.64" y1="-853.24" x2="527.38" y2="-853.24" gradientTransform="translate(-513.36 857.11)" gradientUnits="userSpaceOnUse"><stop offset="0" stop-color="#2e71ef"/><stop offset="0.22" stop-color="#3a6df0"/><stop offset="0.61" stop-color="#5a63f3"/><stop offset="1" stop-color="#8057f6"/></linearGradient><linearGradient id="New_Gradient_Swatch_1-2" x1="1003.62" y1="-631.39" x2="1011.36" y2="-631.39" gradientTransform="translate(1011.36 -621.24) rotate(180)" xlink:href="#New_Gradient_Swatch_1"/></defs><g id="Layer_2" data-name="Layer 2"><g id="Layer_2-2" data-name="Layer 2"><path class="cls-1" d="M7.3,6.1,12.52.88H6.71A.44.44,0,0,1,6.27.44.44.44,0,0,1,6.71,0h6.87A.44.44,0,0,1,14,.44V7.31a.44.44,0,1,1-.88,0V1.5L7.92,6.72Z"/><path class="cls-2" d="M6.72,7.92,1.49,13.14H7.31a.44.44,0,0,1,0,.88H.44A.44.44,0,0,1,0,13.58V6.71a.44.44,0,0,1,.44-.44.44.44,0,0,1,.44.44v5.82L6.1,7.3Z"/></g></g></svg>