<svg xmlns="http://www.w3.org/2000/svg" xmlns:xlink="http://www.w3.org/1999/xlink" viewBox="0 0 277.88 62.91"><defs><style>.cls-1{fill:none;}.cls-2{clip-path:url(#clip-path);}.cls-3{fill:#fff;}</style><clipPath id="clip-path" transform="translate(-6.01 -3.12)"><rect class="cls-1" width="294.58" height="68.26"/></clipPath></defs><g id="Layer_2" data-name="Layer 2"><g id="Layer_2-2" data-name="Layer 2"><g class="cls-2"><path class="cls-3" d="M77.27,15h6c4.92,0,8,3,8,7.66s-3.09,7.66-8,7.66h-6Zm2.09,1.92V28.38h4c3.62,0,5.87-2.24,5.87-5.74s-2.25-5.74-5.87-5.74Z" transform="translate(-6.01 -3.12)"/><path class="cls-3" d="M104.09,25.21H95.22a3.58,3.58,0,0,0,3.63,3.54A3.43,3.43,0,0,0,102,27.26H104c-.15.9-1.53,3.3-5.11,3.3A5.46,5.46,0,0,1,93.24,25a5.32,5.32,0,0,1,5.41-5.59c3.13,0,5.44,2.33,5.44,5.83m-8.74-1.64h6.56a3.4,3.4,0,0,0-6.56,0" transform="translate(-6.01 -3.12)"/><path class="cls-3" d="M111,21.19A3.52,3.52,0,0,0,107.63,25,3.52,3.52,0,0,0,111,28.75,3.27,3.27,0,0,0,114.14,27h2A4.86,4.86,0,0,1,111,30.56,5.43,5.43,0,0,1,105.6,25,5.41,5.41,0,0,1,111,19.38c3.85,0,5,2.79,5.1,3.58h-2A3.33,3.33,0,0,0,111,21.19" transform="translate(-6.01 -3.12)"/><path class="cls-3" d="M128.43,25.21h-8.87a3.58,3.58,0,0,0,3.63,3.54,3.43,3.43,0,0,0,3.17-1.49h1.94c-.15.9-1.53,3.3-5.11,3.3A5.46,5.46,0,0,1,117.58,25,5.32,5.32,0,0,1,123,19.38c3.13,0,5.44,2.33,5.44,5.83m-8.74-1.64h6.56a3.4,3.4,0,0,0-6.56,0" transform="translate(-6.01 -3.12)"/><path class="cls-3" d="M132.7,30.3h-2V19.64h2v2a4.1,4.1,0,0,1,3.63-2.2,4.49,4.49,0,0,1,4.55,4.77V30.3h-2V24.54a3,3,0,0,0-3.05-3.32,3.09,3.09,0,0,0-3.15,3.32Z" transform="translate(-6.01 -3.12)"/><path class="cls-3" d="M151.67,30.3h-2.52c-2.53,0-3.74-1.19-3.74-3.56V21.41h-3.15V19.64h3.15V15h2v4.66h4.29v1.77h-4.29v4.88c0,1.55.51,2.2,2.2,2.2h2.09Z" transform="translate(-6.01 -3.12)"/><path class="cls-3" d="M155.9,30.3h-2V19.64h2v2c.3-.77,1.21-2,3.71-2h2.68v2h-2.72c-2.74,0-3.67.86-3.67,2.76Z" transform="translate(-6.01 -3.12)"/><path class="cls-3" d="M168.5,30.56c-2.8,0-5.2-2.07-5.2-5.59a5.22,5.22,0,0,1,5.2-5.59,4.17,4.17,0,0,1,3.78,2V19.64h2V30.3h-2V28.47a4.1,4.1,0,0,1-3.78,2.09m.37-9.37A3.52,3.52,0,0,0,165.33,25a3.51,3.51,0,1,0,7,0,3.49,3.49,0,0,0-3.45-3.78" transform="translate(-6.01 -3.12)"/><rect class="cls-3" x="171.49" y="11.3" width="1.96" height="15.88"/><path class="cls-3" d="M182.7,14.51h2.05v3.08H182.7Zm.05,5.13h2V30.3h-2Z" transform="translate(-6.01 -3.12)"/><polygon class="cls-3" points="192.03 27.18 181.11 27.18 181.11 26.04 188.21 18.27 181.29 18.27 181.29 16.52 191.25 16.52 191.25 17.62 184.05 25.43 192.03 25.43 192.03 27.18"/><path class="cls-3" d="M210.13,25.21h-8.87a3.58,3.58,0,0,0,3.62,3.54,3.4,3.4,0,0,0,3.17-1.49H210c-.15.9-1.54,3.3-5.12,3.3A5.46,5.46,0,0,1,199.27,25a5.33,5.33,0,0,1,5.42-5.59c3.13,0,5.44,2.33,5.44,5.83m-8.74-1.64H208a3.4,3.4,0,0,0-6.56,0" transform="translate(-6.01 -3.12)"/><path class="cls-3" d="M216.92,30.56A5.21,5.21,0,0,1,211.66,25a5.22,5.22,0,0,1,5.26-5.59,4.3,4.3,0,0,1,3.89,2v-7h2V30.3h-2V28.47a4.39,4.39,0,0,1-3.89,2.09m.37-9.37a3.54,3.54,0,0,0-3.6,3.78,3.59,3.59,0,1,0,7.16,0,3.53,3.53,0,0,0-3.56-3.78" transform="translate(-6.01 -3.12)"/><path class="cls-3" d="M240.64,25.23a5.18,5.18,0,1,1-10.36,0,5.18,5.18,0,1,1,10.36,0m-.75,0a4.43,4.43,0,1,0-8.85,0,4.43,4.43,0,1,0,8.85,0" transform="translate(-6.01 -3.12)"/><path class="cls-3" d="M244.22,30.3h-.73V20.16h.73v2.42a4.06,4.06,0,0,1,3.87-2.68,4.44,4.44,0,0,1,4.51,4.77V30.3h-.74V24.78c0-2.59-1.62-4.17-3.86-4.17a3.86,3.86,0,0,0-3.78,4.17Z" transform="translate(-6.01 -3.12)"/><polygon class="cls-3" points="83.37 38.7 74.15 38.7 74.15 32.08 71.88 32.08 71.88 47.56 74.15 47.56 74.15 40.81 83.37 40.81 83.37 47.56 85.64 47.56 85.64 32.08 83.37 32.08 83.37 38.7"/><path class="cls-3" d="M99.57,41.45a3.11,3.11,0,0,1,3.14,2.33H96.39a3.12,3.12,0,0,1,3.18-2.33m0-1.86a5.47,5.47,0,0,0-5.5,5.68,5.56,5.56,0,0,0,5.7,5.67c3.73,0,5-2.5,5.19-3.37l0-.11h-2.1l0,0c0,.06-.75,1.44-3.09,1.44a3.47,3.47,0,0,1-3.53-3.36h8.86V45.5c0-3.48-2.27-5.91-5.53-5.91" transform="translate(-6.01 -3.12)"/><path class="cls-3" d="M112.71,49a3.44,3.44,0,0,1-3.51-3.68,3.5,3.5,0,1,1,7,0A3.42,3.42,0,0,1,112.71,49m3.43-7.57a4.52,4.52,0,0,0-3.79-1.79c-3.15,0-5.35,2.34-5.35,5.68s2.2,5.67,5.35,5.67a4.52,4.52,0,0,0,3.79-1.87v1.61h2.14v-16h-2.14Z" transform="translate(-6.01 -3.12)"/><path class="cls-3" d="M126.21,41.45a3.11,3.11,0,0,1,3.13,2.33H123a3.12,3.12,0,0,1,3.19-2.33m0-1.86a5.47,5.47,0,0,0-5.5,5.68,5.55,5.55,0,0,0,5.69,5.67c3.73,0,5-2.5,5.2-3.37l0-.11h-2.1l0,0c0,.06-.75,1.44-3.09,1.44a3.47,3.47,0,0,1-3.53-3.36h8.86V45.5c0-3.48-2.27-5.91-5.52-5.91" transform="translate(-6.01 -3.12)"/><path class="cls-3" d="M136.19,41.51V39.85h-2.14V50.68h2.14v-6.1c0-1.93,1-2.67,3.58-2.67h2.8V39.77h-2.76c-2.25,0-3.22,1-3.62,1.74" transform="translate(-6.01 -3.12)"/><path class="cls-3" d="M152.61,45.27a3.42,3.42,0,1,1-6.81,0,3.42,3.42,0,1,1,6.81,0m0-5.42v1.54a4.28,4.28,0,0,0-3.69-1.8,5.31,5.31,0,0,0-5.28,5.68c0,3.34,2.17,5.67,5.28,5.67a4.24,4.24,0,0,0,3.69-1.87v1.61h2.14V39.85Z" transform="translate(-6.01 -3.12)"/><polygon class="cls-3" points="172.78 38.64 163.56 38.64 163.56 32.02 161.29 32.02 161.29 47.51 163.56 47.51 163.56 40.76 172.78 40.76 172.78 47.51 175.05 47.51 175.05 32.02 172.78 32.02 172.78 38.64"/><path class="cls-3" d="M192.62,45.21a3.41,3.41,0,1,1-6.8,0,3.41,3.41,0,1,1,6.8,0m0-3.88a4.25,4.25,0,0,0-3.68-1.79,5.31,5.31,0,0,0-5.29,5.67c0,3.34,2.18,5.67,5.29,5.67A4.26,4.26,0,0,0,192.58,49v1.61h2.14V39.8h-2.14Z" transform="translate(-6.01 -3.12)"/><path class="cls-3" d="M203.45,44.18l-1-.11-1.31-.15c-1.18-.14-1.73-.55-1.73-1.3s.9-1.27,2.35-1.27a3.49,3.49,0,0,1,2.95,1.22l0,0H207l0-.12c-.29-.9-1.37-3-5.19-3-2.67,0-4.47,1.28-4.47,3.19s1.27,3,3.57,3.26l2.29.25c1.6.2,1.82.8,1.82,1.43,0,.86-1,1.4-2.61,1.4-2.21,0-3-1.18-3.13-1.49l0-.07H197l0,.11c0,.14.87,3.35,5.39,3.35,2.88,0,4.75-1.3,4.75-3.3s-1.17-3.13-3.68-3.45" transform="translate(-6.01 -3.12)"/><path class="cls-3" d="M215.08,39.56a4.16,4.16,0,0,0-3.54,1.95V34.58h-2.13V50.63h2.13V44.78a3,3,0,0,1,3.06-3.23,2.91,2.91,0,0,1,3,3.23v5.85h2.16V44.41a4.55,4.55,0,0,0-4.64-4.85" transform="translate(-6.01 -3.12)"/><path class="cls-3" d="M227.65,48.92a3.7,3.7,0,0,1,0-7.39,3.43,3.43,0,0,1,3.46,3.7,3.46,3.46,0,0,1-3.46,3.69m3.42-7.57a4.48,4.48,0,0,0-3.79-1.81c-3.15,0-5.35,2.34-5.35,5.69s2.2,5.68,5.35,5.68a4.46,4.46,0,0,0,3.79-1.86v1.49c0,2-1.29,3.19-3.53,3.19a3.49,3.49,0,0,1-3.2-1.51l0,0H222l0,.11c0,.14.94,3.43,5.52,3.43,3.5,0,5.67-2,5.67-5.17V39.8h-2.14Z" transform="translate(-6.01 -3.12)"/><path class="cls-3" d="M238.47,41.46V39.8h-2.14V50.63h2.14V44.52c0-1.92,1-2.67,3.58-2.67h2.8V39.71h-2.76c-2.25,0-3.22,1-3.62,1.75" transform="translate(-6.01 -3.12)"/><path class="cls-3" d="M254.78,45.21a3.41,3.41,0,1,1-6.8,0,3.41,3.41,0,1,1,6.8,0m0-3.88a4.25,4.25,0,0,0-3.68-1.79,5.31,5.31,0,0,0-5.29,5.67c0,3.34,2.18,5.67,5.29,5.67A4.26,4.26,0,0,0,254.74,49v1.61h2.14V39.8h-2.14Z" transform="translate(-6.01 -3.12)"/><path class="cls-3" d="M265.57,41.53a3.43,3.43,0,0,1,3.49,3.68,3.5,3.5,0,1,1-7,0,3.44,3.44,0,0,1,3.5-3.68m.34-2a4.49,4.49,0,0,0-3.79,1.85V39.8H260V55.45h2.12V49.13a4.76,4.76,0,0,0,3.79,1.75c3.14,0,5.33-2.33,5.33-5.67s-2.19-5.67-5.33-5.67" transform="translate(-6.01 -3.12)"/><path class="cls-3" d="M279.25,39.56a4.14,4.14,0,0,0-3.53,1.95V34.58h-2.14V50.63h2.14V44.78a3,3,0,0,1,3.06-3.23,2.91,2.91,0,0,1,3,3.23v5.85h2.16V44.41a4.55,4.55,0,0,0-4.64-4.85" transform="translate(-6.01 -3.12)"/><path class="cls-3" d="M160,41.18l.58-1.47h.62V41.8h-.41V40.11l-.67,1.7h-.28l-.68-1.71v1.7h-.39V39.71h.65Zm-3.6-1.47h2v.38h-.77V41.8h-.43V40.09h-.76Z" transform="translate(-6.01 -3.12)"/><path class="cls-3" d="M31.22,38.42h12.3v5.43h2.29V25.55H43.52V31H31.22V25.55H28.93v18.3h2.29Zm0-5.15h12.3v2.86H31.22Z" transform="translate(-6.01 -3.12)"/><path class="cls-3" d="M65.65,31.31H65.6A28.18,28.18,0,0,0,59.66,17l0,0a3.25,3.25,0,0,0,1-2.31,3.25,3.25,0,0,0-5.56-2.3l0,0A28.14,28.14,0,0,0,40.72,6.42v0a3.26,3.26,0,0,0-6.52,0v0a27.44,27.44,0,0,0-14.34,5.94l0,0a3.26,3.26,0,0,0-5.56,2.3,3.28,3.28,0,0,0,1,2.31l0,0A28.1,28.1,0,0,0,9.33,31.2l0,.11h0a3.26,3.26,0,1,0,0,6.51h.05a28.18,28.18,0,0,0,5.94,14.34l0,0a3.28,3.28,0,0,0-1,2.31,3.25,3.25,0,0,0,5.56,2.3l0,0A28.16,28.16,0,0,0,34.2,62.7v.07a3.26,3.26,0,0,0,6.52,0v-.06a27.53,27.53,0,0,0,14.33-5.94l0,0a3.26,3.26,0,0,0,5.56-2.3,3.25,3.25,0,0,0-1-2.31l0,0A28.18,28.18,0,0,0,65.6,37.82h.05a3.26,3.26,0,1,0,0-6.51m-.37,0a3.21,3.21,0,0,0-1.82.82L54.34,23l2.18-5.27a3.15,3.15,0,0,0,.87.12,3.22,3.22,0,0,0,2-.71,27.74,27.74,0,0,1,5.86,14.15M54,34.85h8.4a3.16,3.16,0,0,0,.16.74l-9.25,3.87A16.45,16.45,0,0,0,54,34.85m8.39-.31H54a16.39,16.39,0,0,0-.81-5l9.4,3.9a3.06,3.06,0,0,0-.2,1.09m-8.7.16A16.32,16.32,0,1,1,37.37,18.38,16.34,16.34,0,0,1,53.69,34.7M52.3,42l1.8,4.33-2.27,2.27-2.44-2.43A16.61,16.61,0,0,0,52.3,42M25.53,46.37l-2.21,2.2-2.11-2.14,1.56-3.77a17,17,0,0,0,2.76,3.71M20.74,34.48l-8.21,0a3,3,0,0,0-.18-.94l9.15-3.79a16.51,16.51,0,0,0-.76,4.75m-8.22.3h8.22a16.87,16.87,0,0,0,.63,4.47l-9-3.73a3.11,3.11,0,0,0,.14-.75m10.24-8L21.21,23l2.18-2.18,2.2,2.2a16.73,16.73,0,0,0-2.83,3.79M49.3,23.12l2.34-2.34L54,23.11l-1.72,4.16a16.92,16.92,0,0,0-3-4.15m2.56-2.56,3.44-3.43a3,3,0,0,0,.92.54L54.1,22.8Zm-.22-.22-2.2-2.21,5-2.08a3.26,3.26,0,0,0,.61.87Zm-.22.22-2.34,2.33a16.9,16.9,0,0,0-4-2.94l4.06-1.68Zm-6.74-.8a16.39,16.39,0,0,0-1.55-.66L39,9.23a3.78,3.78,0,0,0,.61-.44L48.88,18Zm-2-.81a16.45,16.45,0,0,0-5-.88V9.62a3,3,0,0,0,1-.25Zm-5.35-.88h0a16.71,16.71,0,0,0-4.71.68l3.83-9.26a3,3,0,0,0,.9.14Zm-5.11.8a16.34,16.34,0,0,0-2,.81L26.16,18l9.16-9.16a3.25,3.25,0,0,0,.87.54Zm-2.42,1a16.45,16.45,0,0,0-4,2.88l-2.21-2.2,2.31-2.31Zm-6.46.46L19.9,16.86a3,3,0,0,0,.59-.88l5.12,2.13Zm-.23.22-2.08,2.08L19,17.53a3,3,0,0,0,.66-.45Zm-.59,6.57a15.94,15.94,0,0,0-.94,2.21l-9.39,3.89a3.45,3.45,0,0,0-.51-.79L21,23.19Zm-10.29,8.7,9.21,3.83a16.21,16.21,0,0,0,1.09,2.65L21,46.19l-9.29-9.44a3.23,3.23,0,0,0,.6-.93m8.8,10.93,2,2-3.35,3.33a3.6,3.6,0,0,0-.68-.5ZM23.32,49l2.09,2.12-4.9,2a3,3,0,0,0-.54-.84Zm.22-.23,2.21-2.2a16.86,16.86,0,0,0,3.84,2.81L25.73,51Zm6.41.79a16.07,16.07,0,0,0,2.1.88l3.84,9.45a3.14,3.14,0,0,0-.79.62L26,51.25Zm2.5,1a16.38,16.38,0,0,0,4.88.74v8.18a3.28,3.28,0,0,0-1.14.26Zm5.2.74a16.61,16.61,0,0,0,5-.86L38.81,59.8a3.53,3.53,0,0,0-1.18-.29Zm5.41-1a16.37,16.37,0,0,0,2-.89l4.2,1.75L39.9,60.61a3.21,3.21,0,0,0-.81-.66Zm2.36-1.08a16.77,16.77,0,0,0,3.75-2.84l2.44,2.43L49.51,51Zm6.42-.19L55,52.25a3.15,3.15,0,0,0-.54.77l-4.66-1.94Zm.22-.22,2.17-2.18,2,4.8a3.13,3.13,0,0,0-1,.57Zm.43-7.2a16,16,0,0,0,.69-1.78l9.49-4A3.29,3.29,0,0,0,63.44,37l-9.1,9.14Zm.56-12.49c-.18-.51-.39-1-.62-1.5l1.78-4.3,9,9a3.22,3.22,0,0,0-.52.78Zm2.26-16.6a2.94,2.94,0,0,1,5,2.08,2.89,2.89,0,0,1-.86,2.08,1.8,1.8,0,0,1-.2.19l0,0a2.91,2.91,0,0,1-1.84.65,2.94,2.94,0,0,1-2.08-.86h0a2.86,2.86,0,0,1-.56-.78h0l-.12-.29h0a2.87,2.87,0,0,1-.18-1,2.92,2.92,0,0,1,.86-2.08m-.47,0a3.24,3.24,0,0,0-.71,2,3.32,3.32,0,0,0,.2,1.13l-5.14,2.13L39.87,8.57a3.29,3.29,0,0,0,.83-1.83A27.83,27.83,0,0,1,54.84,12.6M37.46,3.43a2.95,2.95,0,1,1-2.94,2.95,2.95,2.95,0,0,1,2.94-2.95M34.22,6.74a3.24,3.24,0,0,0,.88,1.88l-9.25,9.24-5.24-2.17a3.41,3.41,0,0,0,.17-1.06,3.22,3.22,0,0,0-.71-2A27.09,27.09,0,0,1,34.22,6.74M14.58,14.63a2.95,2.95,0,1,1,5.89,0,2.94,2.94,0,0,1-4.78,2.3h0l-.06-.05-.19-.17a2.93,2.93,0,0,1-.86-2.08M9.64,31.24a27.9,27.9,0,0,1,5.85-14.06,3.27,3.27,0,0,0,3.24.48l2.11,5.21L11.51,32.2a3.29,3.29,0,0,0-1.88-.87Zm-.37,6.27a2.95,2.95,0,1,1,2.94-2.94,2.94,2.94,0,0,1-2.94,2.94m.36.29A3.21,3.21,0,0,0,11.46,37l9.38,9.52-2.06,5a3.14,3.14,0,0,0-1.25-.25,3.26,3.26,0,0,0-2,.71A27.91,27.91,0,0,1,9.63,37.8m10.2,18.53-.09-.06-.2.24.08.06h0a2.95,2.95,0,0,1-5-2.08,2.93,2.93,0,0,1,.86-2.08,2.09,2.09,0,0,1,.22-.2h0a2.93,2.93,0,0,1,3.95.2,3,3,0,0,1,.61.9h0l.12.29h0a2.91,2.91,0,0,1,.14.89,3,3,0,0,1-.64,1.83m.24.2a3.24,3.24,0,0,0,.71-2,3.38,3.38,0,0,0-.15-1l5-2.1,9.24,9.38a3.21,3.21,0,0,0-.67,1.62,28,28,0,0,1-14.15-5.86m17.39,9.18a2.94,2.94,0,1,1,2.94-2.94,2.94,2.94,0,0,1-2.94,2.94m3.23-3.32a3.15,3.15,0,0,0-.59-1.53l9.49-9.54,4.77,2a3.25,3.25,0,0,0,.48,3.23,27.09,27.09,0,0,1-14.15,5.86M60.33,54.5a2.94,2.94,0,1,1-5.88,0,3,3,0,0,1,2.94-3,3,3,0,0,1,1.85.66l0,0a1.8,1.8,0,0,1,.2.19,2.89,2.89,0,0,1,.86,2.08M59.42,52a3.22,3.22,0,0,0-2-.71,3.15,3.15,0,0,0-.87.12l-2.05-4.94,9.21-9.26a3.18,3.18,0,0,0,1.6.64A27.74,27.74,0,0,1,59.42,52m6.23-14.44a2.94,2.94,0,0,1-.33-5.87h0l.22,0h.11a2.95,2.95,0,0,1,0,5.89" transform="translate(-6.01 -3.12)"/></g></g></g></svg>