<svg xmlns="http://www.w3.org/2000/svg" xmlns:xlink="http://www.w3.org/1999/xlink" viewBox="0 0 16 16"><defs><style>.cls-1{fill:url(#New_Gradient_Swatch_1);}</style><linearGradient id="New_Gradient_Swatch_1" y1="8" x2="16" y2="8" gradientUnits="userSpaceOnUse"><stop offset="0" stop-color="#2e71ef"/><stop offset="0.22" stop-color="#3a6df0"/><stop offset="0.61" stop-color="#5a63f3"/><stop offset="1" stop-color="#8057f6"/></linearGradient></defs><g id="Layer_2" data-name="Layer 2"><g id="Layer_2-2" data-name="Layer 2"><path class="cls-1" d="M13.71,7.52a.2.2,0,0,1,.19-.19.19.19,0,0,1,.19.19v8.29a.19.19,0,0,1-.19.19H.19A.2.2,0,0,1,0,15.81V2.1a.19.19,0,0,1,.19-.19H8.48a.19.19,0,0,1,.19.19.2.2,0,0,1-.19.19H.38V15.62H13.71Zm-6.16.66,7.8-7.8h-5a.19.19,0,0,1-.19-.19A.2.2,0,0,1,10.38,0h5.43A.2.2,0,0,1,16,.19V5.62a.2.2,0,0,1-.19.19.19.19,0,0,1-.19-.19v-5l-7.8,7.8Z"/></g></g></svg>