<svg xmlns="http://www.w3.org/2000/svg" xmlns:xlink="http://www.w3.org/1999/xlink" viewBox="0 0 203.55 58.97"><defs><clipPath id="clip-path" transform="translate(-0.13 -0.13)"><rect width="112.96" height="59.23" style="fill:none"/></clipPath><linearGradient id="New_Gradient_Swatch_1" x1="0.63" y1="29.61" x2="58.6" y2="29.61" gradientTransform="translate(31.44 -12.23) rotate(47.5)" gradientUnits="userSpaceOnUse"><stop offset="0" stop-color="#2e71ef"/><stop offset="0.22" stop-color="#3a6df0"/><stop offset="0.61" stop-color="#5a63f3"/><stop offset="1" stop-color="#8057f6"/></linearGradient></defs><g id="Layer_2" data-name="Layer 2"><g id="Layer_2-2" data-name="Layer 2"><g style="clip-path:url(#clip-path)"><circle cx="29.61" cy="29.61" r="28.98" transform="translate(-12.36 31.31) rotate(-47.5)" style="stroke:#fff;stroke-linejoin:round;fill:url(#New_Gradient_Swatch_1)"/><path d="M17.65,9a23.81,23.81,0,0,0,12,44.4" transform="translate(-0.13 -0.13)" style="fill:none;stroke:#fff;stroke-linecap:round;stroke-linejoin:round"/><path d="M41.58,50.21a23.81,23.81,0,0,0-12-44.4" transform="translate(-0.13 -0.13)" style="fill:none;stroke:#fff;stroke-linecap:round;stroke-linejoin:round"/><line x1="55.77" y1="17.17" x2="63.02" y2="17.17" style="fill:none;stroke:#fff;stroke-linecap:round;stroke-linejoin:round"/><line x1="44.64" y1="4.85" x2="74.53" y2="4.85" style="fill:none;stroke:#fff;stroke-linecap:round;stroke-linejoin:round"/><line x1="44.75" y1="54.12" x2="62.09" y2="54.12" style="fill:none;stroke:#fff;stroke-linecap:round;stroke-linejoin:round"/><line x1="58.52" y1="29.49" x2="67.85" y2="29.49" style="fill:none;stroke:#fff;stroke-linecap:round;stroke-linejoin:round"/><line x1="85.08" y1="5.55" x2="100.4" y2="5.55" style="fill:none;stroke:#fff;stroke-linecap:round;stroke-linejoin:round"/><line x1="64.56" y1="41.45" x2="88.9" y2="41.45" style="fill:none;stroke:#fff;stroke-linecap:round;stroke-linejoin:round"/><line x1="72.98" y1="29.49" x2="78.7" y2="29.49" style="fill:none;stroke:#fff;stroke-linecap:round;stroke-linejoin:round"/><line x1="66.8" y1="17.17" x2="90.23" y2="17.17" style="fill:none;stroke:#fff;stroke-linecap:round;stroke-linejoin:round"/><line x1="67.81" y1="53.42" x2="85.57" y2="53.42" style="fill:none;stroke:#fff;stroke-linecap:round;stroke-linejoin:round"/></g><path d="M20.81,43.33H17.72l9.11-24.67a13.58,13.58,0,0,0,.78-2.44.75.75,0,0,0-.35-.7,4.17,4.17,0,0,0-1.73-.22H24.7l.32-.89a22,22,0,0,0,6.12-.77h.65L25.9,29.57q4.67-4.65,8.52-4.65a4.53,4.53,0,0,1,2.59.59,2.06,2.06,0,0,1,.86,1.82,17.34,17.34,0,0,1-1.53,4.57l-2.29,5.36a18.93,18.93,0,0,0-1.32,3.63,1.14,1.14,0,0,0,.26.81,1,1,0,0,0,.78.28,3.58,3.58,0,0,0,2.1-.92,8.34,8.34,0,0,0,2-2.28h1.27A11.87,11.87,0,0,1,36,42.28a5.94,5.94,0,0,1-3.45,1.32,3.07,3.07,0,0,1-2-.72A2.39,2.39,0,0,1,29.64,41a13.84,13.84,0,0,1,1.45-4.55l2.21-4.93a15.75,15.75,0,0,0,1.53-4.27.92.92,0,0,0-.35-.8,1.75,1.75,0,0,0-1.08-.27,6.43,6.43,0,0,0-2.75.78,12,12,0,0,0-3.3,2.61,14.49,14.49,0,0,0-2.5,3.42,54.5,54.5,0,0,0-2.07,5.11Z" transform="translate(-0.13 -0.13)" style="fill:#fff"/><rect x="19.84" y="20.33" width="17.11" height="1.8" transform="translate(-4.59 7.77) rotate(-14.69)" style="fill:#fff"/><path d="M105.63,19.15c0-5.3,3.77-9.54,9-9.54A8.47,8.47,0,0,1,122.92,15h-1.79a7.17,7.17,0,0,0-6.5-3.74c-4.34,0-7.2,3.64-7.2,7.93s2.83,7.9,7.2,7.9a6.94,6.94,0,0,0,6.53-3.74h1.76a8.37,8.37,0,0,1-8.29,5.38C109.4,28.69,105.63,24.51,105.63,19.15Z" transform="translate(-0.13 -0.13)" style="fill:#fff"/><path d="M137.09,22.11a6.5,6.5,0,1,1-13,0,6.5,6.5,0,1,1,13,0Zm-1.66,0a4.83,4.83,0,1,0-9.65,0,4.83,4.83,0,1,0,9.65,0Z" transform="translate(-0.13 -0.13)" style="fill:#fff"/><path d="M140.73,28.38H139.1V15.85h1.63V18.5a4.86,4.86,0,0,1,4.5-3c3.23,0,5.46,2.39,5.46,5.74v7.1h-1.64V21.57c0-2.76-1.69-4.5-4.16-4.5a4.17,4.17,0,0,0-4.16,4.5Z" transform="translate(-0.13 -0.13)" style="fill:#fff"/><path d="M155.14,28.38H153.5V15.85h1.64V18.5a4.85,4.85,0,0,1,4.5-3c3.22,0,5.46,2.39,5.46,5.74v7.1h-1.64V21.57c0-2.76-1.69-4.5-4.16-4.5a4.16,4.16,0,0,0-4.16,4.5Z" transform="translate(-0.13 -0.13)" style="fill:#fff"/><path d="M179.55,22.09H168.61v0a4.83,4.83,0,0,0,4.86,5.05A4.7,4.7,0,0,0,177.81,25h1.59c-.29,1.06-1.93,3.66-5.93,3.66a6.39,6.39,0,0,1-6.53-6.58,6.26,6.26,0,0,1,6.29-6.57C177,15.54,179.5,18.32,179.55,22.09Zm-10.84-1.41h9a4.61,4.61,0,0,0-9,0Z" transform="translate(-0.13 -0.13)" style="fill:#fff"/><path d="M186.7,17c-2.65,0-4.55,2.29-4.55,5.07s1.9,5.05,4.58,5.05A4.45,4.45,0,0,0,191,24.69h1.61a5.79,5.79,0,0,1-5.85,4,6.32,6.32,0,0,1-6.27-6.58,6.3,6.3,0,0,1,6.24-6.57,5.79,5.79,0,0,1,5.88,4h-1.64A4.65,4.65,0,0,0,186.7,17Z" transform="translate(-0.13 -0.13)" style="fill:#fff"/><path d="M203.68,28.38H201c-3,0-4.37-1.38-4.37-4.24V17.33h-4V15.85h4V9.92h1.64v5.93h5.38v1.48H198.3v6.55c0,2,.73,3,3,3h2.39Z" transform="translate(-0.13 -0.13)" style="fill:#fff"/><path d="M118.32,35.75l-5.54,15.73h-1.35L105,32.92h1.84l5.39,15.73,5.48-15.83H119l5.62,15.88,5.28-15.78h1.66l-6.21,18.56h-1.43Z" transform="translate(-0.13 -0.13)" style="fill:#fff"/><path d="M137.15,51.69c-3.44,0-6.17-2.68-6.17-6.58a6.21,6.21,0,0,1,6.17-6.57A5.22,5.22,0,0,1,142,41.47V38.85h1.64V51.38H142v-2.7A5.13,5.13,0,0,1,137.15,51.69Zm.23-11.62a4.77,4.77,0,0,0-4.71,5,4.71,4.71,0,1,0,9.39,0A4.75,4.75,0,0,0,137.38,40.07Z" transform="translate(-0.13 -0.13)" style="fill:#fff"/><path d="M146.66,32.24h1.64V51.38h-1.64Z" transform="translate(-0.13 -0.13)" style="fill:#fff"/><path d="M151.5,32.24h1.64V51.38H151.5Z" transform="translate(-0.13 -0.13)" style="fill:#fff"/><path d="M167.8,45.09h-11v0a4.84,4.84,0,0,0,4.87,5A4.72,4.72,0,0,0,166.06,48h1.58c-.28,1.06-1.92,3.66-5.92,3.66a6.39,6.39,0,0,1-6.53-6.58,6.26,6.26,0,0,1,6.29-6.57C165.2,38.54,167.75,41.32,167.8,45.09ZM157,43.68h9a4.61,4.61,0,0,0-9,0Z" transform="translate(-0.13 -0.13)" style="fill:#fff"/><path d="M178.93,51.38h-2.65c-3,0-4.37-1.38-4.37-4.24V40.33h-4V38.85h4V32.92h1.64v5.93h5.38v1.48h-5.38v6.55c0,2,.72,3,3,3h2.39Z" transform="translate(-0.13 -0.13)" style="fill:#fff"/></g></g></svg>