<svg xmlns="http://www.w3.org/2000/svg" xmlns:xlink="http://www.w3.org/1999/xlink" viewBox="0 0 203.55 59.57"><defs><style>.cls-1,.cls-4{fill:none;}.cls-2{clip-path:url(#clip-path);}.cls-3,.cls-4{stroke:#fff;stroke-linejoin:round;}.cls-3{fill:url(#New_Gradient_Swatch_1);}.cls-4{stroke-linecap:round;}.cls-5,.cls-6{fill:#fff;}.cls-6{font-size:26px;font-family:Styerna;font-weight:300;}.cls-6,.cls-8{letter-spacing:-0.08em;}.cls-7{letter-spacing:-0.13em;}.cls-9{letter-spacing:-0.08em;}</style><clipPath id="clip-path" transform="translate(-0.13 -0.13)"><rect class="cls-1" width="112.96" height="59.23"/></clipPath><linearGradient id="New_Gradient_Swatch_1" x1="0.63" y1="29.61" x2="58.6" y2="29.61" gradientTransform="translate(31.44 -12.23) rotate(47.5)" gradientUnits="userSpaceOnUse"><stop offset="0" stop-color="#2e71ef"/><stop offset="0.22" stop-color="#3a6df0"/><stop offset="0.61" stop-color="#5a63f3"/><stop offset="1" stop-color="#8057f6"/></linearGradient></defs><g id="Layer_2" data-name="Layer 2"><g id="Layer_2-2" data-name="Layer 2"><g class="cls-2"><circle class="cls-3" cx="29.61" cy="29.61" r="28.98" transform="translate(-12.36 31.31) rotate(-47.5)"/><path class="cls-4" d="M17.65,9a23.81,23.81,0,0,0,12,44.4" transform="translate(-0.13 -0.13)"/><path class="cls-4" d="M41.58,50.21a23.81,23.81,0,0,0-12-44.4" transform="translate(-0.13 -0.13)"/><line class="cls-4" x1="55.77" y1="17.17" x2="63.02" y2="17.17"/><line class="cls-4" x1="44.64" y1="4.85" x2="74.53" y2="4.85"/><line class="cls-4" x1="44.75" y1="54.12" x2="62.09" y2="54.12"/><line class="cls-4" x1="58.52" y1="29.49" x2="67.85" y2="29.49"/><line class="cls-4" x1="85.08" y1="5.55" x2="100.4" y2="5.55"/><line class="cls-4" x1="64.56" y1="41.45" x2="88.9" y2="41.45"/><line class="cls-4" x1="72.98" y1="29.49" x2="78.7" y2="29.49"/><line class="cls-4" x1="66.8" y1="17.17" x2="90.23" y2="17.17"/><line class="cls-4" x1="67.81" y1="53.42" x2="85.57" y2="53.42"/></g><path class="cls-5" d="M20.81,43.33H17.72l9.11-24.67a13.58,13.58,0,0,0,.78-2.44.75.75,0,0,0-.35-.7,4.17,4.17,0,0,0-1.73-.22H24.7l.32-.89a22,22,0,0,0,6.12-.77h.65L25.9,29.57q4.67-4.65,8.52-4.65a4.53,4.53,0,0,1,2.59.59,2.06,2.06,0,0,1,.86,1.82,17.34,17.34,0,0,1-1.53,4.57l-2.29,5.36a18.93,18.93,0,0,0-1.32,3.63,1.14,1.14,0,0,0,.26.81,1,1,0,0,0,.78.28,3.58,3.58,0,0,0,2.1-.92,8.34,8.34,0,0,0,2-2.28h1.27A11.87,11.87,0,0,1,36,42.28a5.94,5.94,0,0,1-3.45,1.32,3.07,3.07,0,0,1-2-.72A2.39,2.39,0,0,1,29.64,41a13.84,13.84,0,0,1,1.45-4.55l2.21-4.93a15.75,15.75,0,0,0,1.53-4.27.92.92,0,0,0-.35-.8,1.75,1.75,0,0,0-1.08-.27,6.43,6.43,0,0,0-2.75.78,12,12,0,0,0-3.3,2.61,14.49,14.49,0,0,0-2.5,3.42,54.5,54.5,0,0,0-2.07,5.11Z" transform="translate(-0.13 -0.13)"/><rect class="cls-5" x="19.84" y="20.33" width="17.11" height="1.8" transform="translate(-4.59 7.77) rotate(-14.69)"/><text class="cls-6" transform="translate(103.58 28.25)">Connect<tspan class="cls-7"><tspan x="0" y="23">W</tspan><tspan class="cls-8" x="25.64" y="23">a</tspan><tspan class="cls-9" x="40.33" y="23">l</tspan><tspan class="cls-8" x="45.16" y="23">let</tspan></tspan></text></g></g></svg>