<svg xmlns="http://www.w3.org/2000/svg" xmlns:xlink="http://www.w3.org/1999/xlink" viewBox="0 0 184.05 74.99"><defs><linearGradient id="New_Gradient_Swatch_1" y1="37.5" x2="184.05" y2="37.5" gradientUnits="userSpaceOnUse"><stop offset="0" stop-color="#2e71ef"/><stop offset="0.22" stop-color="#3a6df0"/><stop offset="0.61" stop-color="#5a63f3"/><stop offset="1" stop-color="#8057f6"/></linearGradient><clipPath id="clip-path"><rect x="17.11" y="9.79" width="49.87" height="49.87" style="fill:none"/></clipPath></defs><g id="Layer_2" data-name="Layer 2"><g id="Layer_2-2" data-name="Layer 2"><rect x="1.74" y="1.19" width="180.56" height="72.61"/><path d="M184.05,75H0V0H184.05ZM1.74,73.8H182.3V1.19H1.74Z" style="fill:url(#New_Gradient_Swatch_1)"/><path d="M104.78,50.86h-2l-23-28.74V50.63H76.81v-32h3.66l21.47,26.89V18.6h2.84Z" style="fill:#fff"/><path d="M107.44,18.6h25.4v2.8H110.42V32.23h13.31V35H110.42V50.63h-3Z" style="fill:#fff"/><path d="M135,18.6h31v2.75H152V50.63h-3V21.35H135Z" style="fill:#fff"/><g style="clip-path:url(#clip-path)"><rect x="35.03" y="32.94" width="14.04" height="3.58" style="fill:#fff"/><path d="M42.05,9.79A24.94,24.94,0,1,0,67,34.73,24.94,24.94,0,0,0,42.05,9.79m10.3,36.14H49.06v-7H35v7H31.74V23.53H35v7h14v-7h3.29Z" style="fill:#fff"/></g><g style="opacity:0.58"><path d="M83.25,61.59H78.13l-1.21,2.62h-.86l4.32-9.34H81l4.33,9.34h-.9Zm-.35-.78-2.21-4.76-2.2,4.76Z" style="fill:#fff"/><path d="M96,60.23V54.92h.86v5.36a3.76,3.76,0,0,1-4,4.08c-2.7,0-4-1.79-4-4.08V54.92h.86v5.31a3.12,3.12,0,1,0,6.23,0Z" style="fill:#fff"/><path d="M101.05,59.56a4.58,4.58,0,0,1,4.52-4.8,4.24,4.24,0,0,1,4.17,2.7h-.9a3.59,3.59,0,0,0-3.27-1.89,3.74,3.74,0,0,0-3.62,4,3.7,3.7,0,0,0,3.62,4,3.52,3.52,0,0,0,3.29-1.88h.88a4.2,4.2,0,0,1-4.17,2.7A4.55,4.55,0,0,1,101.05,59.56Z" style="fill:#fff"/><path d="M112.91,54.92h9v.8h-4v8.49H117V55.72h-4.07Z" style="fill:#fff"/><path d="M125.71,54.92h.85v9.29h-.85Z" style="fill:#fff"/><path d="M130.82,59.56a4.74,4.74,0,1,1,4.74,4.8A4.68,4.68,0,0,1,130.82,59.56Zm8.58,0a3.85,3.85,0,1,0-3.84,4A3.84,3.84,0,0,0,139.4,59.56Z" style="fill:#fff"/><path d="M152.63,64.27h-.58l-6.69-8.33v8.27h-.83V54.92h1.06l6.22,7.8v-7.8h.82Z" style="fill:#fff"/></g></g></g></svg>