<svg xmlns="http://www.w3.org/2000/svg" xmlns:xlink="http://www.w3.org/1999/xlink" viewBox="0 0 184.05 74.99"><defs><style>.cls-1{fill:none;}.cls-2{fill:url(#New_Gradient_Swatch_1);}.cls-3,.cls-5{fill:#fff;}.cls-4{clip-path:url(#clip-path);}.cls-5{opacity:0.58;font-size:13.08px;font-family:Styerna;font-weight:300;letter-spacing:0.12em;}.cls-6{letter-spacing:0.13em;}</style><linearGradient id="New_Gradient_Swatch_1" y1="37.5" x2="184.05" y2="37.5" gradientUnits="userSpaceOnUse"><stop offset="0" stop-color="#2e71ef"/><stop offset="0.22" stop-color="#3a6df0"/><stop offset="0.61" stop-color="#5a63f3"/><stop offset="1" stop-color="#8057f6"/></linearGradient><clipPath id="clip-path"><rect class="cls-1" x="17.11" y="9.79" width="49.87" height="49.87"/></clipPath></defs><g id="Layer_2" data-name="Layer 2"><g id="Layer_2-2" data-name="Layer 2"><rect x="1.74" y="1.19" width="180.56" height="72.61"/><path class="cls-2" d="M184.05,75H0V0H184.05ZM1.74,73.8,182.05,74l.25-72.78H1.74Z"/><path class="cls-3" d="M104.78,50.86h-2l-23-28.74V50.63H76.81v-32h3.66l21.47,26.89V18.6h2.84Z"/><path class="cls-3" d="M107.44,18.6h25.4v2.8H110.42V32.23h13.31V35H110.42V50.63h-3Z"/><path class="cls-3" d="M135,18.6h31v2.75H152V50.63h-3V21.35H135Z"/><g class="cls-4"><rect class="cls-3" x="35.03" y="32.94" width="14.04" height="3.58"/><path class="cls-3" d="M42.05,9.79A24.94,24.94,0,1,0,67,34.73,24.94,24.94,0,0,0,42.05,9.79m10.3,36.14H49.06v-7H35v7H31.74V23.53H35v7h14v-7h3.29Z"/></g><text class="cls-5" transform="translate(75.56 64.21)">A<tspan class="cls-6" x="11.87" y="0">UCTION</tspan></text></g></g></svg>